<svg xmlns="http://www.w3.org/2000/svg" viewBox="0 0 500 500"><g id="freepik--Code--inject-8"><g id="freepik--Binary--inject-8"><path d="M76.4,95.31l1.52-1.17V82.78l-1.55.93V82.43l2.88-2.62V93.37l1.51-.59V94.1L76.4,96.62Z" style="fill:#3047F5;opacity:0.15"></path><path d="M81.57,109.18a12.89,12.89,0,0,1-.84,4.93A5.61,5.61,0,0,1,78.44,117c-1,.56-1.73.48-2.29-.23s-.85-2-.85-4v-3.6a12.93,12.93,0,0,1,.84-4.93,5.67,5.67,0,0,1,2.28-2.88c1-.56,1.74-.48,2.3.23s.85,2,.85,4Zm-1.33-3.26a5.44,5.44,0,0,0-.47-2.7c-.31-.48-.75-.56-1.35-.21a3.18,3.18,0,0,0-1.33,1.76,9.49,9.49,0,0,0-.46,3.23v4.44a5.48,5.48,0,0,0,.47,2.71c.31.49.76.56,1.34.23a3.16,3.16,0,0,0,1.34-1.78,9.51,9.51,0,0,0,.46-3.24Z" style="fill:#3047F5;opacity:0.15"></path><path d="M76.4,138l1.52-1.17V125.43l-1.55.93v-1.28l2.88-2.62V136l1.51-.58v1.31l-4.36,2.52Z" style="fill:#3047F5"></path><path d="M81.57,151.83a12.86,12.86,0,0,1-.84,4.93,5.64,5.64,0,0,1-2.29,2.88c-1,.55-1.73.48-2.29-.23s-.85-2-.85-4v-3.59a13,13,0,0,1,.84-4.94A5.67,5.67,0,0,1,78.42,144c1-.56,1.74-.48,2.3.23s.85,2,.85,4Zm-1.33-3.26a5.46,5.46,0,0,0-.47-2.7c-.31-.48-.75-.55-1.35-.21a3.18,3.18,0,0,0-1.33,1.76,9.49,9.49,0,0,0-.46,3.23v4.45a5.46,5.46,0,0,0,.47,2.7c.31.49.76.57,1.34.23a3.17,3.17,0,0,0,1.34-1.77,9.61,9.61,0,0,0,.46-3.25Z" style="fill:#3047F5;opacity:0.30000000000000004"></path><path d="M76.4,180.61l1.52-1.17V168.08l-1.55.94v-1.28l2.88-2.63v13.56l1.51-.58v1.31l-4.36,2.52Z" style="fill:#3047F5;opacity:0.30000000000000004"></path><path d="M76.4,201.93l1.52-1.16V189.41l-1.55.93v-1.28l2.88-2.62V200l1.51-.59v1.32l-4.36,2.52Z" style="fill:#3047F5"></path><path d="M76.4,223.26l1.52-1.17V210.73l-1.55.94v-1.28l2.88-2.63v13.56l1.51-.58v1.31l-4.36,2.52Z" style="fill:#3047F5;opacity:0.15"></path><path d="M81.57,237.13a12.86,12.86,0,0,1-.84,4.93,5.64,5.64,0,0,1-2.29,2.88c-1,.55-1.73.48-2.29-.23s-.85-2-.85-4v-3.59a13,13,0,0,1,.84-4.94,5.6,5.6,0,0,1,2.28-2.87c1-.56,1.74-.49,2.3.22s.85,2,.85,4Zm-1.33-3.26a5.39,5.39,0,0,0-.47-2.69c-.31-.49-.75-.56-1.35-.22a3.18,3.18,0,0,0-1.33,1.76,9.49,9.49,0,0,0-.46,3.23v4.45a5.46,5.46,0,0,0,.47,2.7c.31.49.76.57,1.34.23a3.17,3.17,0,0,0,1.34-1.77,9.59,9.59,0,0,0,.46-3.24Z" style="fill:#3047F5"></path><path d="M76.4,265.91l1.52-1.17V253.38l-1.55.94V253l2.88-2.62V264l1.51-.58v1.31l-4.36,2.52Z" style="fill:#3047F5"></path><path d="M81.57,279.78a13,13,0,0,1-.84,4.94,5.65,5.65,0,0,1-2.29,2.87c-1,.56-1.73.48-2.29-.23s-.85-2-.85-4v-3.59a13,13,0,0,1,.84-4.94A5.64,5.64,0,0,1,78.42,272c1-.56,1.74-.49,2.3.23s.85,2,.85,4Zm-1.33-3.26a5.39,5.39,0,0,0-.47-2.69c-.31-.49-.75-.56-1.35-.22a3.22,3.22,0,0,0-1.33,1.76,9.49,9.49,0,0,0-.46,3.23v4.45a5.46,5.46,0,0,0,.47,2.7c.31.49.76.57,1.34.24a3.23,3.23,0,0,0,1.34-1.78,9.51,9.51,0,0,0,.46-3.24Z" style="fill:#3047F5;opacity:0.15"></path><path d="M76.4,308.56l1.52-1.17V296l-1.55.94v-1.28l2.88-2.62v13.55l1.51-.58v1.31l-4.36,2.53Z" style="fill:#3047F5;opacity:0.30000000000000004"></path><path d="M81.57,322.43a12.91,12.91,0,0,1-.84,4.94,5.65,5.65,0,0,1-2.29,2.87c-1,.56-1.73.48-2.29-.23s-.85-2-.85-4v-3.59a13,13,0,0,1,.84-4.94,5.64,5.64,0,0,1,2.28-2.87c1-.56,1.74-.48,2.3.23s.85,2,.85,4Zm-1.33-3.26a5.39,5.39,0,0,0-.47-2.69c-.31-.49-.75-.56-1.35-.22A3.24,3.24,0,0,0,77.09,318a9.43,9.43,0,0,0-.46,3.22v4.45a5.46,5.46,0,0,0,.47,2.7c.31.49.76.57,1.34.24a3.23,3.23,0,0,0,1.34-1.78,9.51,9.51,0,0,0,.46-3.24Z" style="fill:#3047F5"></path><path d="M76.4,351.21,77.92,350V338.68l-1.55.94v-1.28l2.88-2.62v13.56l1.51-.59V350l-4.36,2.53Z" style="fill:#3047F5;opacity:0.30000000000000004"></path><path d="M81.57,365.08a12.91,12.91,0,0,1-.84,4.94,5.65,5.65,0,0,1-2.29,2.87c-1,.56-1.73.48-2.29-.23s-.85-2-.85-4v-3.59a12.93,12.93,0,0,1,.84-4.93,5.63,5.63,0,0,1,2.28-2.88c1-.56,1.74-.48,2.3.23s.85,2,.85,4Zm-1.33-3.26a5.39,5.39,0,0,0-.47-2.69c-.31-.49-.75-.56-1.35-.22a3.24,3.24,0,0,0-1.33,1.77,9.43,9.43,0,0,0-.46,3.22v4.45a5.44,5.44,0,0,0,.47,2.7c.31.49.76.57,1.34.24a3.23,3.23,0,0,0,1.34-1.78,9.51,9.51,0,0,0,.46-3.24Z" style="fill:#3047F5"></path><path d="M62.16,99.06a12.89,12.89,0,0,1-.84,4.93A5.61,5.61,0,0,1,59,106.86c-1,.56-1.73.48-2.29-.23s-.85-2-.85-3.95v-3.6a12.93,12.93,0,0,1,.84-4.93A5.64,5.64,0,0,1,59,91.27c1-.56,1.73-.48,2.3.23s.84,2,.84,4ZM60.83,95.8a5.58,5.58,0,0,0-.46-2.7c-.31-.48-.76-.56-1.35-.21a3.14,3.14,0,0,0-1.33,1.76,9.47,9.47,0,0,0-.47,3.23v4.44a5.48,5.48,0,0,0,.47,2.71c.31.49.76.57,1.34.23a3.16,3.16,0,0,0,1.34-1.78,9.51,9.51,0,0,0,.46-3.24Z" style="fill:#3047F5;opacity:0.30000000000000004"></path><path d="M57,127.84l1.52-1.17V115.31l-1.55.93V115l2.88-2.62V125.9l1.52-.58v1.31L57,129.15Z" style="fill:#3047F5"></path><path d="M57,149.16,58.51,148V136.63l-1.55.94v-1.28l2.88-2.62v13.55l1.52-.58V148L57,150.48Z" style="fill:#3047F5;opacity:0.15"></path><path d="M57,170.49l1.52-1.17V158L57,158.9v-1.28L59.84,155v13.56l1.52-.58v1.31L57,171.8Z" style="fill:#3047F5;opacity:0.30000000000000004"></path><path d="M62.16,184.36a12.86,12.86,0,0,1-.84,4.93A5.64,5.64,0,0,1,59,192.17c-1,.55-1.73.48-2.29-.23s-.85-2-.85-4v-3.59a13,13,0,0,1,.84-4.94A5.57,5.57,0,0,1,59,176.58c1-.56,1.73-.49,2.3.22s.84,2,.84,4Zm-1.33-3.26a5.61,5.61,0,0,0-.46-2.7q-.46-.72-1.35-.21A3.14,3.14,0,0,0,57.69,180a9.47,9.47,0,0,0-.47,3.23v4.45a5.46,5.46,0,0,0,.47,2.7c.31.49.76.57,1.34.23a3.17,3.17,0,0,0,1.34-1.77,9.59,9.59,0,0,0,.46-3.24Z" style="fill:#3047F5"></path><path d="M62.16,205.68a12.91,12.91,0,0,1-.84,4.94A5.65,5.65,0,0,1,59,213.49c-1,.56-1.73.48-2.29-.23s-.85-2-.85-4v-3.59a12.93,12.93,0,0,1,.84-4.93A5.64,5.64,0,0,1,59,197.9c1-.56,1.73-.48,2.3.23s.84,2,.84,4Zm-1.33-3.26a5.53,5.53,0,0,0-.46-2.69c-.31-.48-.76-.56-1.35-.22a3.2,3.2,0,0,0-1.33,1.77,9.41,9.41,0,0,0-.47,3.22V209a5.51,5.51,0,0,0,.47,2.71c.31.49.76.56,1.34.23a3.19,3.19,0,0,0,1.34-1.78,9.51,9.51,0,0,0,.46-3.24Z" style="fill:#3047F5;opacity:0.30000000000000004"></path><path d="M57,234.47l1.52-1.17V221.94l-1.55.93v-1.28L59.84,219v13.56l1.52-.59v1.32L57,235.78Z" style="fill:#3047F5"></path><path d="M62.16,248.34a12.89,12.89,0,0,1-.84,4.93A5.61,5.61,0,0,1,59,256.14c-1,.56-1.73.48-2.29-.23s-.85-2-.85-4v-3.59a12.93,12.93,0,0,1,.84-4.93A5.64,5.64,0,0,1,59,240.55c1-.56,1.73-.48,2.3.23s.84,2,.84,4Zm-1.33-3.27a5.56,5.56,0,0,0-.46-2.69c-.31-.48-.76-.56-1.35-.22a3.2,3.2,0,0,0-1.33,1.77,9.43,9.43,0,0,0-.47,3.23v4.44a5.51,5.51,0,0,0,.47,2.71c.31.49.76.56,1.34.23a3.19,3.19,0,0,0,1.34-1.78,9.51,9.51,0,0,0,.46-3.24Z" style="fill:#3047F5;opacity:0.15"></path><path d="M57,277.12,58.51,276V264.59l-1.55.93v-1.28l2.88-2.62v13.56l1.52-.58v1.31L57,278.43Z" style="fill:#3047F5;opacity:0.30000000000000004"></path><path d="M62.16,291a12.86,12.86,0,0,1-.84,4.93A5.61,5.61,0,0,1,59,298.79c-1,.56-1.73.48-2.29-.22s-.85-2-.85-4V291a13,13,0,0,1,.84-4.94A5.64,5.64,0,0,1,59,283.2c1-.56,1.73-.48,2.3.23s.84,2,.84,4Zm-1.33-3.26a5.58,5.58,0,0,0-.46-2.7c-.31-.48-.76-.56-1.35-.21a3.14,3.14,0,0,0-1.33,1.76,9.47,9.47,0,0,0-.47,3.23v4.44a5.48,5.48,0,0,0,.47,2.71c.31.49.76.57,1.34.23a3.16,3.16,0,0,0,1.34-1.78,9.51,9.51,0,0,0,.46-3.24Z" style="fill:#3047F5;opacity:0.30000000000000004"></path><path d="M57,319.77l1.52-1.17V307.24l-1.55.93v-1.28l2.88-2.62v13.56l1.52-.59v1.32L57,321.08Z" style="fill:#3047F5"></path><path d="M62.16,333.64a12.86,12.86,0,0,1-.84,4.93A5.61,5.61,0,0,1,59,341.44c-1,.56-1.73.48-2.29-.22s-.85-2-.85-4v-3.59a13,13,0,0,1,.84-4.94A5.64,5.64,0,0,1,59,325.85c1-.56,1.73-.48,2.3.23s.84,2,.84,4Zm-1.33-3.26a5.61,5.61,0,0,0-.46-2.7c-.31-.48-.76-.56-1.35-.21a3.14,3.14,0,0,0-1.33,1.76,9.47,9.47,0,0,0-.47,3.23v4.44a5.48,5.48,0,0,0,.47,2.71c.31.49.76.57,1.34.23a3.16,3.16,0,0,0,1.34-1.78,9.51,9.51,0,0,0,.46-3.24Z" style="fill:#3047F5;opacity:0.30000000000000004"></path><path d="M62.16,355a12.91,12.91,0,0,1-.84,4.94A5.65,5.65,0,0,1,59,362.77c-1,.56-1.73.48-2.29-.23s-.85-2-.85-4V355a13,13,0,0,1,.84-4.94A5.61,5.61,0,0,1,59,347.18c1-.56,1.73-.49,2.3.23s.84,2,.84,4Zm-1.33-3.26a5.53,5.53,0,0,0-.46-2.69c-.31-.49-.76-.56-1.35-.22a3.2,3.2,0,0,0-1.33,1.77,9.41,9.41,0,0,0-.47,3.22v4.45a5.46,5.46,0,0,0,.47,2.7c.31.49.76.57,1.34.24a3.19,3.19,0,0,0,1.34-1.78,9.51,9.51,0,0,0,.46-3.24Z" style="fill:#3047F5;opacity:0.15"></path><path d="M62.16,376.29a12.89,12.89,0,0,1-.84,4.93A5.61,5.61,0,0,1,59,384.09c-1,.56-1.73.48-2.29-.22s-.85-2-.85-4v-3.6a13,13,0,0,1,.84-4.93A5.64,5.64,0,0,1,59,368.5c1-.56,1.73-.48,2.3.23s.84,2,.84,4ZM60.83,373a5.61,5.61,0,0,0-.46-2.7q-.46-.72-1.35-.21a3.14,3.14,0,0,0-1.33,1.76,9.47,9.47,0,0,0-.47,3.23v4.44a5.48,5.48,0,0,0,.47,2.71c.31.49.76.57,1.34.23a3.17,3.17,0,0,0,1.34-1.77,9.61,9.61,0,0,0,.46-3.25Z" style="fill:#3047F5;opacity:0.30000000000000004"></path><path d="M37.58,117.72l1.52-1.17V105.19l-1.55.93v-1.28l2.88-2.62v13.56l1.52-.59v1.32L37.58,119Z" style="fill:#3047F5"></path><path d="M37.58,139l1.52-1.17V126.51l-1.55.94v-1.28l2.88-2.62V137.1l1.52-.58v1.31l-4.37,2.52Z" style="fill:#3047F5;opacity:0.30000000000000004"></path><path d="M42.75,152.91a13,13,0,0,1-.83,4.94,5.66,5.66,0,0,1-2.3,2.87c-1,.56-1.73.48-2.29-.23s-.84-2-.84-4v-3.59a13,13,0,0,1,.83-4.94,5.57,5.57,0,0,1,2.29-2.87c1-.56,1.73-.49,2.3.23s.84,2,.84,4Zm-1.33-3.26A5.42,5.42,0,0,0,41,147c-.31-.49-.76-.56-1.35-.22a3.2,3.2,0,0,0-1.33,1.77,9.43,9.43,0,0,0-.46,3.22v4.45a5.49,5.49,0,0,0,.46,2.7c.31.49.76.57,1.34.24A3.28,3.28,0,0,0,41,157.34a9.79,9.79,0,0,0,.45-3.24Z" style="fill:#3047F5"></path><path d="M37.58,181.69l1.52-1.16V169.17l-1.55.93v-1.28l2.88-2.62v13.56l1.52-.59v1.31L37.58,183Z" style="fill:#3047F5;opacity:0.30000000000000004"></path><path d="M42.75,195.56a12.92,12.92,0,0,1-.83,4.94,5.66,5.66,0,0,1-2.3,2.87c-1,.56-1.73.48-2.29-.23s-.84-2-.84-4v-3.59a12.94,12.94,0,0,1,.83-4.93,5.64,5.64,0,0,1,2.29-2.88c1-.56,1.73-.48,2.3.23s.84,2,.84,4Zm-1.33-3.26a5.42,5.42,0,0,0-.46-2.69c-.31-.49-.76-.56-1.35-.22a3.2,3.2,0,0,0-1.33,1.77,9.43,9.43,0,0,0-.46,3.22v4.45a5.56,5.56,0,0,0,.46,2.71c.31.48.76.56,1.34.23A3.25,3.25,0,0,0,41,200a9.79,9.79,0,0,0,.45-3.24Z" style="fill:#3047F5;opacity:0.15"></path><path d="M42.75,216.89a12.87,12.87,0,0,1-.83,4.93,5.65,5.65,0,0,1-2.3,2.88c-1,.55-1.73.48-2.29-.23s-.84-2-.84-4v-3.59a13,13,0,0,1,.83-4.94,5.57,5.57,0,0,1,2.29-2.87c1-.56,1.73-.49,2.3.22s.84,2,.84,4Zm-1.33-3.26a5.49,5.49,0,0,0-.46-2.7q-.47-.72-1.35-.21a3.14,3.14,0,0,0-1.33,1.76,9.49,9.49,0,0,0-.46,3.23v4.45a5.49,5.49,0,0,0,.46,2.7c.31.49.76.57,1.34.23A3.22,3.22,0,0,0,41,221.32a9.88,9.88,0,0,0,.45-3.24Z" style="fill:#3047F5"></path><path d="M37.58,245.67l1.52-1.17V233.14l-1.55.94V232.8l2.88-2.63v13.56l1.52-.58v1.31L37.58,247Z" style="fill:#3047F5;opacity:0.30000000000000004"></path><path d="M42.75,259.54a13,13,0,0,1-.83,4.94,5.66,5.66,0,0,1-2.3,2.87c-1,.55-1.73.48-2.29-.23s-.84-2-.84-4v-3.59a13,13,0,0,1,.83-4.94,5.57,5.57,0,0,1,2.29-2.87c1-.56,1.73-.49,2.3.22s.84,2,.84,4Zm-1.33-3.26a5.42,5.42,0,0,0-.46-2.69c-.31-.49-.76-.56-1.35-.22a3.14,3.14,0,0,0-1.33,1.76,9.49,9.49,0,0,0-.46,3.23v4.45a5.49,5.49,0,0,0,.46,2.7c.31.49.76.57,1.34.23A3.22,3.22,0,0,0,41,264a9.83,9.83,0,0,0,.45-3.24Z" style="fill:#3047F5;opacity:0.30000000000000004"></path><path d="M42.75,280.87a12.9,12.9,0,0,1-.83,4.93,5.62,5.62,0,0,1-2.3,2.87c-1,.56-1.73.48-2.29-.22s-.84-2-.84-4v-3.6a12.94,12.94,0,0,1,.83-4.93,5.64,5.64,0,0,1,2.29-2.88c1-.56,1.73-.48,2.3.23s.84,2,.84,4Zm-1.33-3.26a5.49,5.49,0,0,0-.46-2.7c-.31-.48-.76-.56-1.35-.21a3.14,3.14,0,0,0-1.33,1.76,9.49,9.49,0,0,0-.46,3.23v4.44a5.51,5.51,0,0,0,.46,2.71c.31.49.76.57,1.34.23A3.21,3.21,0,0,0,41,285.29a9.79,9.79,0,0,0,.45-3.24Z" style="fill:#3047F5"></path><path d="M37.58,309.65l1.52-1.17V297.12l-1.55.94v-1.29l2.88-2.62v13.56l1.52-.58v1.31L37.58,311Z" style="fill:#3047F5;opacity:0.30000000000000004"></path><path d="M37.58,331l1.52-1.17V318.44l-1.55.94V318.1l2.88-2.62V329l1.52-.59v1.31l-4.37,2.53Z" style="fill:#3047F5;opacity:0.15"></path><path d="M42.75,344.84a12.92,12.92,0,0,1-.83,4.94,5.66,5.66,0,0,1-2.3,2.87c-1,.56-1.73.48-2.29-.23s-.84-2-.84-4v-3.59a12.94,12.94,0,0,1,.83-4.93,5.59,5.59,0,0,1,2.29-2.88c1-.56,1.73-.48,2.3.23s.84,2,.84,4Zm-1.33-3.26a5.42,5.42,0,0,0-.46-2.69c-.31-.48-.76-.56-1.35-.22a3.2,3.2,0,0,0-1.33,1.77,9.43,9.43,0,0,0-.46,3.22v4.45a5.54,5.54,0,0,0,.46,2.71c.31.49.76.56,1.34.23A3.28,3.28,0,0,0,41,349.27a9.79,9.79,0,0,0,.45-3.24Z" style="fill:#3047F5;opacity:0.30000000000000004"></path><path d="M37.58,373.62l1.52-1.17V361.09l-1.55.94v-1.28l2.88-2.62v13.56L42,371.1v1.31l-4.37,2.53Z" style="fill:#3047F5"></path><path d="M42.75,387.49a12.92,12.92,0,0,1-.83,4.94,5.66,5.66,0,0,1-2.3,2.87c-1,.56-1.73.48-2.29-.23s-.84-2-.84-3.95v-3.6a12.94,12.94,0,0,1,.83-4.93,5.64,5.64,0,0,1,2.29-2.88c1-.56,1.73-.48,2.3.23s.84,2,.84,4Zm-1.33-3.26a5.44,5.44,0,0,0-.46-2.69c-.31-.48-.76-.56-1.35-.22a3.2,3.2,0,0,0-1.33,1.77,9.45,9.45,0,0,0-.46,3.23v4.44a5.51,5.51,0,0,0,.46,2.71c.31.49.76.56,1.34.23A3.25,3.25,0,0,0,41,391.92a9.79,9.79,0,0,0,.45-3.24Z" style="fill:#3047F5;opacity:0.30000000000000004"></path><path d="M133.75,62.2,135.27,61V49.67l-1.55.93V49.32l2.88-2.62V60.26l1.51-.58V61l-4.36,2.52Z" style="fill:#3047F5"></path><path d="M138.92,76.07a12.89,12.89,0,0,1-.84,4.93,5.61,5.61,0,0,1-2.29,2.87c-1,.56-1.73.48-2.3-.22s-.84-2-.84-4v-3.6a12.93,12.93,0,0,1,.84-4.93,5.67,5.67,0,0,1,2.28-2.88c1-.56,1.74-.48,2.3.23s.85,2,.85,4Zm-1.33-3.26a5.44,5.44,0,0,0-.47-2.7c-.31-.48-.76-.56-1.35-.21a3.18,3.18,0,0,0-1.33,1.76,9.49,9.49,0,0,0-.46,3.23v4.44a5.48,5.48,0,0,0,.47,2.71c.31.49.76.57,1.34.23a3.2,3.2,0,0,0,1.34-1.78,9.77,9.77,0,0,0,.46-3.24Z" style="fill:#3047F5;opacity:0.15"></path><path d="M133.75,104.85l1.52-1.17V92.32l-1.55.93V92l2.88-2.62v13.56l1.51-.58v1.31l-4.36,2.52Z" style="fill:#3047F5"></path><path d="M138.92,118.72a12.86,12.86,0,0,1-.84,4.93,5.64,5.64,0,0,1-2.29,2.88c-1,.55-1.73.48-2.3-.23s-.84-2-.84-4v-3.59a13,13,0,0,1,.84-4.94,5.6,5.6,0,0,1,2.28-2.87c1-.56,1.74-.49,2.3.22s.85,2,.85,4Zm-1.33-3.26a5.46,5.46,0,0,0-.47-2.7q-.47-.72-1.35-.21a3.18,3.18,0,0,0-1.33,1.76,9.49,9.49,0,0,0-.46,3.23V122a5.46,5.46,0,0,0,.47,2.7c.31.49.76.57,1.34.23a3.21,3.21,0,0,0,1.34-1.77,9.87,9.87,0,0,0,.46-3.25Z" style="fill:#3047F5;opacity:0.30000000000000004"></path><path d="M133.75,147.5l1.52-1.17V135l-1.55.94v-1.28L136.6,132v13.56l1.51-.58v1.31l-4.36,2.52Z" style="fill:#3047F5;opacity:0.30000000000000004"></path><path d="M133.75,168.83l1.52-1.17V156.3l-1.55.93V156l2.88-2.62v13.56l1.51-.59v1.32l-4.36,2.52Z" style="fill:#3047F5"></path><path d="M133.75,190.15l1.52-1.17V177.62l-1.55.94v-1.28l2.88-2.63v13.56l1.51-.58v1.31l-4.36,2.52Z" style="fill:#3047F5;opacity:0.15"></path><path d="M138.92,204a13,13,0,0,1-.84,4.94,5.65,5.65,0,0,1-2.29,2.87c-1,.55-1.73.48-2.3-.23s-.84-2-.84-4v-3.59a13,13,0,0,1,.84-4.94,5.6,5.6,0,0,1,2.28-2.87c1-.56,1.74-.49,2.3.22s.85,2,.85,4Zm-1.33-3.26a5.39,5.39,0,0,0-.47-2.69c-.31-.49-.76-.56-1.35-.22a3.18,3.18,0,0,0-1.33,1.76,9.49,9.49,0,0,0-.46,3.23v4.45a5.46,5.46,0,0,0,.47,2.7c.31.49.76.57,1.34.23a3.21,3.21,0,0,0,1.34-1.77,9.77,9.77,0,0,0,.46-3.24Z" style="fill:#3047F5;opacity:0.30000000000000004"></path><path d="M133.75,232.8l1.52-1.17V220.27l-1.55.94v-1.28l2.88-2.62v13.55l1.51-.58v1.31l-4.36,2.53Z" style="fill:#3047F5"></path><path d="M138.92,246.67a12.91,12.91,0,0,1-.84,4.94,5.65,5.65,0,0,1-2.29,2.87c-1,.56-1.73.48-2.3-.23s-.84-2-.84-4V246.7a13,13,0,0,1,.84-4.94,5.64,5.64,0,0,1,2.28-2.87c1-.56,1.74-.49,2.3.23s.85,2,.85,4Zm-1.33-3.26a5.39,5.39,0,0,0-.47-2.69c-.31-.49-.76-.56-1.35-.22a3.24,3.24,0,0,0-1.33,1.77,9.43,9.43,0,0,0-.46,3.22v4.45a5.46,5.46,0,0,0,.47,2.7c.31.49.76.57,1.34.24a3.27,3.27,0,0,0,1.34-1.78,9.77,9.77,0,0,0,.46-3.24Z" style="fill:#3047F5;opacity:0.15"></path><path d="M133.75,275.45l1.52-1.17V262.92l-1.55.94v-1.28L136.6,260v13.56l1.51-.59v1.31l-4.36,2.53Z" style="fill:#3047F5;opacity:0.30000000000000004"></path><path d="M138.92,289.32a12.91,12.91,0,0,1-.84,4.94,5.65,5.65,0,0,1-2.29,2.87c-1,.56-1.73.48-2.3-.23s-.84-2-.84-4v-3.59a12.93,12.93,0,0,1,.84-4.93,5.63,5.63,0,0,1,2.28-2.88c1-.56,1.74-.48,2.3.23s.85,2,.85,4Zm-1.33-3.26a5.39,5.39,0,0,0-.47-2.69c-.31-.49-.76-.56-1.35-.22a3.24,3.24,0,0,0-1.33,1.77,9.43,9.43,0,0,0-.46,3.22v4.45a5.46,5.46,0,0,0,.47,2.7c.31.49.76.57,1.34.24a3.27,3.27,0,0,0,1.34-1.78,9.77,9.77,0,0,0,.46-3.24Z" style="fill:#3047F5"></path><path d="M133.75,318.1l1.52-1.17V305.57l-1.55.94v-1.28l2.88-2.62v13.56l1.51-.59v1.31l-4.36,2.53Z" style="fill:#3047F5;opacity:0.30000000000000004"></path><path d="M138.92,332a12.91,12.91,0,0,1-.84,4.94,5.65,5.65,0,0,1-2.29,2.87c-1,.56-1.73.48-2.3-.23s-.84-2-.84-4V332a12.93,12.93,0,0,1,.84-4.93,5.63,5.63,0,0,1,2.28-2.88c1-.56,1.74-.48,2.3.23s.85,2,.85,4Zm-1.33-3.26a5.39,5.39,0,0,0-.47-2.69c-.31-.48-.76-.56-1.35-.22a3.24,3.24,0,0,0-1.33,1.77,9.43,9.43,0,0,0-.46,3.22v4.45a5.51,5.51,0,0,0,.47,2.71c.31.49.76.56,1.34.23a3.24,3.24,0,0,0,1.34-1.78,9.77,9.77,0,0,0,.46-3.24Z" style="fill:#3047F5;opacity:0.30000000000000004"></path><path d="M119.51,66a12.89,12.89,0,0,1-.84,4.93,5.61,5.61,0,0,1-2.29,2.87c-1,.56-1.73.48-2.29-.22s-.85-2-.85-4V66a12.93,12.93,0,0,1,.84-4.93,5.64,5.64,0,0,1,2.29-2.88c1-.56,1.73-.48,2.3.23s.84,2,.84,4Zm-1.33-3.26a5.58,5.58,0,0,0-.46-2.7c-.31-.48-.76-.56-1.35-.21A3.19,3.19,0,0,0,115,61.54a9.74,9.74,0,0,0-.46,3.23v4.44a5.48,5.48,0,0,0,.47,2.71c.31.49.76.57,1.34.23a3.17,3.17,0,0,0,1.34-1.77,9.61,9.61,0,0,0,.46-3.25Z" style="fill:#3047F5;opacity:0.15"></path><path d="M114.34,94.73l1.52-1.17V82.2l-1.55.94V81.85l2.88-2.62V92.79l1.51-.58v1.31L114.34,96Z" style="fill:#3047F5"></path><path d="M114.34,116.05l1.52-1.17V103.52l-1.55.94v-1.28l2.88-2.62v13.56l1.51-.59v1.31l-4.36,2.53Z" style="fill:#3047F5;opacity:0.15"></path><path d="M114.34,137.38l1.52-1.17V124.85l-1.55.94v-1.28l2.88-2.63v13.56l1.51-.58v1.31l-4.36,2.52Z" style="fill:#3047F5;opacity:0.30000000000000004"></path><path d="M119.51,151.25a12.86,12.86,0,0,1-.84,4.93,5.64,5.64,0,0,1-2.29,2.88c-1,.55-1.73.48-2.29-.23s-.85-2-.85-4v-3.59a13,13,0,0,1,.84-4.94,5.57,5.57,0,0,1,2.29-2.87c1-.56,1.73-.49,2.3.22s.84,2,.84,4ZM118.18,148a5.53,5.53,0,0,0-.46-2.69c-.31-.49-.76-.56-1.35-.22a3.19,3.19,0,0,0-1.34,1.76,9.74,9.74,0,0,0-.46,3.23v4.45a5.46,5.46,0,0,0,.47,2.7c.31.49.76.57,1.34.23a3.17,3.17,0,0,0,1.34-1.77,9.59,9.59,0,0,0,.46-3.24Z" style="fill:#3047F5"></path><path d="M119.51,172.58a12.89,12.89,0,0,1-.84,4.93,5.65,5.65,0,0,1-2.29,2.87c-1,.56-1.73.48-2.29-.23s-.85-2-.85-4V172.6a12.93,12.93,0,0,1,.84-4.93,5.64,5.64,0,0,1,2.29-2.88c1-.56,1.73-.48,2.3.23s.84,2,.84,4Zm-1.33-3.27a5.53,5.53,0,0,0-.46-2.69c-.31-.48-.76-.56-1.35-.22a3.26,3.26,0,0,0-1.34,1.77,9.7,9.7,0,0,0-.46,3.23v4.44a5.51,5.51,0,0,0,.47,2.71c.31.49.76.56,1.34.23a3.19,3.19,0,0,0,1.34-1.78,9.51,9.51,0,0,0,.46-3.24Z" style="fill:#3047F5;opacity:0.30000000000000004"></path><path d="M114.34,201.36l1.52-1.17V188.83l-1.55.93v-1.28l2.88-2.62v13.56l1.51-.59v1.32l-4.36,2.52Z" style="fill:#3047F5"></path><path d="M119.51,215.23a12.89,12.89,0,0,1-.84,4.93,5.61,5.61,0,0,1-2.29,2.87c-1,.56-1.73.48-2.29-.23s-.85-2-.85-4v-3.6a12.93,12.93,0,0,1,.84-4.93,5.64,5.64,0,0,1,2.29-2.88c1-.56,1.73-.48,2.3.23s.84,2,.84,4ZM118.18,212a5.56,5.56,0,0,0-.46-2.69c-.31-.48-.76-.56-1.35-.22a3.26,3.26,0,0,0-1.34,1.77,9.7,9.7,0,0,0-.46,3.23v4.44a5.48,5.48,0,0,0,.47,2.71c.31.49.76.56,1.34.23a3.16,3.16,0,0,0,1.34-1.78,9.51,9.51,0,0,0,.46-3.24Z" style="fill:#3047F5"></path><path d="M114.34,244l1.52-1.17V231.48l-1.55.94v-1.29l2.88-2.62v13.56l1.51-.58v1.31l-4.36,2.52Z" style="fill:#3047F5;opacity:0.30000000000000004"></path><path d="M119.51,257.88a12.86,12.86,0,0,1-.84,4.93,5.61,5.61,0,0,1-2.29,2.87c-1,.56-1.73.48-2.29-.22s-.85-2-.85-4v-3.59a13,13,0,0,1,.84-4.94,5.64,5.64,0,0,1,2.29-2.88c1-.56,1.73-.48,2.3.23s.84,2,.84,4Zm-1.33-3.26a5.61,5.61,0,0,0-.46-2.7c-.31-.48-.76-.56-1.35-.21a3.19,3.19,0,0,0-1.34,1.76,9.74,9.74,0,0,0-.46,3.23v4.44a5.48,5.48,0,0,0,.47,2.71c.31.49.76.57,1.34.23a3.16,3.16,0,0,0,1.34-1.78,9.51,9.51,0,0,0,.46-3.24Z" style="fill:#3047F5;opacity:0.30000000000000004"></path><path d="M114.34,286.66l1.52-1.17V274.13l-1.55.93v-1.28l2.88-2.62v13.56l1.51-.58v1.31L114.34,288Z" style="fill:#3047F5"></path><path d="M119.51,300.53a12.86,12.86,0,0,1-.84,4.93,5.61,5.61,0,0,1-2.29,2.87c-1,.56-1.73.49-2.29-.22s-.85-2-.85-4v-3.59a13,13,0,0,1,.84-4.94,5.64,5.64,0,0,1,2.29-2.88c1-.56,1.73-.48,2.3.23s.84,2,.84,4Zm-1.33-3.26a5.61,5.61,0,0,0-.46-2.7c-.31-.48-.76-.56-1.35-.21a3.19,3.19,0,0,0-1.34,1.76,9.74,9.74,0,0,0-.46,3.23v4.44a5.48,5.48,0,0,0,.47,2.71c.31.49.76.57,1.34.23a3.17,3.17,0,0,0,1.34-1.77,9.61,9.61,0,0,0,.46-3.25Z" style="fill:#3047F5;opacity:0.30000000000000004"></path><path d="M119.51,321.85a12.91,12.91,0,0,1-.84,4.94,5.65,5.65,0,0,1-2.29,2.87c-1,.56-1.73.48-2.29-.23s-.85-2-.85-4v-3.59a13,13,0,0,1,.84-4.94,5.61,5.61,0,0,1,2.29-2.87c1-.56,1.73-.49,2.3.23s.84,2,.84,4Zm-1.33-3.26a5.53,5.53,0,0,0-.46-2.69c-.31-.49-.76-.56-1.35-.22a3.26,3.26,0,0,0-1.34,1.77,9.68,9.68,0,0,0-.46,3.22v4.45a5.46,5.46,0,0,0,.47,2.7c.31.49.76.57,1.34.24a3.19,3.19,0,0,0,1.34-1.78,9.51,9.51,0,0,0,.46-3.24Z" style="fill:#3047F5;opacity:0.15"></path><path d="M119.51,343.18a12.86,12.86,0,0,1-.84,4.93,5.61,5.61,0,0,1-2.29,2.87c-1,.56-1.73.48-2.29-.22s-.85-2-.85-4v-3.59a13,13,0,0,1,.84-4.94,5.64,5.64,0,0,1,2.29-2.88c1-.56,1.73-.48,2.3.23s.84,2,.84,4Zm-1.33-3.26a5.61,5.61,0,0,0-.46-2.7q-.47-.72-1.35-.21a3.19,3.19,0,0,0-1.34,1.76,9.74,9.74,0,0,0-.46,3.23v4.44a5.48,5.48,0,0,0,.47,2.71c.31.49.76.57,1.34.23a3.17,3.17,0,0,0,1.34-1.77,9.61,9.61,0,0,0,.46-3.25Z" style="fill:#3047F5"></path><path d="M94.93,84.61l1.52-1.17V72.08L94.9,73V71.73l2.88-2.62V82.67l1.52-.58V83.4l-4.37,2.52Z" style="fill:#3047F5"></path><path d="M94.93,105.93l1.52-1.17V93.4l-1.55.94V93.06l2.88-2.62V104l1.52-.58v1.31l-4.37,2.53Z" style="fill:#3047F5;opacity:0.30000000000000004"></path><path d="M100.1,119.8a13.15,13.15,0,0,1-.83,4.94,5.71,5.71,0,0,1-2.3,2.87c-1,.56-1.73.48-2.29-.23s-.84-2-.84-4v-3.59a13,13,0,0,1,.83-4.94A5.61,5.61,0,0,1,97,112c1-.56,1.73-.49,2.3.23s.84,2,.84,4Zm-1.33-3.26a5.42,5.42,0,0,0-.46-2.69c-.31-.49-.76-.56-1.35-.22a3.2,3.2,0,0,0-1.33,1.77,9.43,9.43,0,0,0-.46,3.22v4.45a5.49,5.49,0,0,0,.46,2.7c.31.49.76.57,1.34.24a3.23,3.23,0,0,0,1.34-1.78,9.51,9.51,0,0,0,.46-3.24Z" style="fill:#3047F5"></path><path d="M94.93,148.58l1.52-1.16V136.06L94.9,137v-1.28l2.88-2.62v13.56l1.52-.59v1.32l-4.37,2.52Z" style="fill:#3047F5;opacity:0.30000000000000004"></path><path d="M100.1,162.45a13.12,13.12,0,0,1-.83,4.94,5.71,5.71,0,0,1-2.3,2.87c-1,.56-1.73.48-2.29-.23s-.84-2-.84-4v-3.59a12.94,12.94,0,0,1,.83-4.93A5.64,5.64,0,0,1,97,154.67c1-.56,1.73-.48,2.3.23s.84,2,.84,4Zm-1.33-3.26a5.42,5.42,0,0,0-.46-2.69c-.31-.48-.76-.56-1.35-.22a3.2,3.2,0,0,0-1.33,1.77,9.43,9.43,0,0,0-.46,3.22v4.45a5.54,5.54,0,0,0,.46,2.71c.31.49.76.56,1.34.23a3.19,3.19,0,0,0,1.34-1.78,9.51,9.51,0,0,0,.46-3.24Z" style="fill:#3047F5;opacity:0.15"></path><path d="M100.1,183.78a13.06,13.06,0,0,1-.83,4.93,5.7,5.7,0,0,1-2.3,2.88c-1,.55-1.73.48-2.29-.23s-.84-2-.84-4v-3.59a13,13,0,0,1,.83-4.94A5.57,5.57,0,0,1,97,176c1-.56,1.73-.49,2.3.22s.84,2,.84,4Zm-1.33-3.26a5.42,5.42,0,0,0-.46-2.69c-.31-.49-.76-.56-1.35-.22a3.14,3.14,0,0,0-1.33,1.76,9.49,9.49,0,0,0-.46,3.23v4.45a5.49,5.49,0,0,0,.46,2.7c.31.49.76.57,1.34.23a3.17,3.17,0,0,0,1.34-1.77,9.59,9.59,0,0,0,.46-3.24Z" style="fill:#3047F5"></path><path d="M94.93,212.56l1.52-1.17V200L94.9,201v-1.28l2.88-2.63v13.56L99.3,210v1.31l-4.37,2.52Z" style="fill:#3047F5;opacity:0.30000000000000004"></path><path d="M100.1,226.43a13.15,13.15,0,0,1-.83,4.94,5.71,5.71,0,0,1-2.3,2.87c-1,.56-1.73.48-2.29-.23s-.84-2-.84-4v-3.59a13,13,0,0,1,.83-4.94A5.57,5.57,0,0,1,97,218.65c1-.56,1.73-.49,2.3.22s.84,2,.84,4Zm-1.33-3.26a5.42,5.42,0,0,0-.46-2.69c-.31-.49-.76-.56-1.35-.22A3.14,3.14,0,0,0,95.63,222a9.49,9.49,0,0,0-.46,3.23v4.45a5.49,5.49,0,0,0,.46,2.7c.31.49.76.57,1.34.23a3.17,3.17,0,0,0,1.34-1.77,9.51,9.51,0,0,0,.46-3.24Z" style="fill:#3047F5;opacity:0.30000000000000004"></path><path d="M100.1,247.76a13.06,13.06,0,0,1-.83,4.93,5.7,5.7,0,0,1-2.3,2.88,1.61,1.61,0,0,1-2.29-.23q-.84-1.07-.84-4v-3.59a13,13,0,0,1,.83-4.94A5.64,5.64,0,0,1,97,240c1-.56,1.73-.48,2.3.23s.84,2,.84,4Zm-1.33-3.26a5.49,5.49,0,0,0-.46-2.7c-.31-.48-.76-.56-1.35-.21a3.14,3.14,0,0,0-1.33,1.76,9.49,9.49,0,0,0-.46,3.23V251a5.49,5.49,0,0,0,.46,2.7c.31.49.76.57,1.34.23a3.17,3.17,0,0,0,1.34-1.77,9.61,9.61,0,0,0,.46-3.25Z" style="fill:#3047F5"></path><path d="M94.93,276.54l1.52-1.17V264L94.9,265v-1.28L97.78,261V274.6L99.3,274v1.31l-4.37,2.52Z" style="fill:#3047F5;opacity:0.30000000000000004"></path><path d="M94.93,297.86l1.52-1.17V285.33l-1.55.94V285l2.88-2.62v13.56l1.52-.59v1.31l-4.37,2.53Z" style="fill:#3047F5;opacity:0.15"></path><path d="M100.1,311.73a13.12,13.12,0,0,1-.83,4.94,5.71,5.71,0,0,1-2.3,2.87c-1,.56-1.73.48-2.29-.23s-.84-2-.84-4v-3.59a12.94,12.94,0,0,1,.83-4.93A5.64,5.64,0,0,1,97,304c1-.56,1.73-.48,2.3.23s.84,2,.84,4Zm-1.33-3.26a5.42,5.42,0,0,0-.46-2.69c-.31-.48-.76-.56-1.35-.22a3.2,3.2,0,0,0-1.33,1.77,9.43,9.43,0,0,0-.46,3.22V315a5.54,5.54,0,0,0,.46,2.71c.31.49.76.56,1.34.23a3.19,3.19,0,0,0,1.34-1.78,9.51,9.51,0,0,0,.46-3.24Z" style="fill:#3047F5;opacity:0.30000000000000004"></path><path d="M94.93,340.51l1.52-1.16V328l-1.55.94v-1.28L97.78,325v13.56L99.3,338v1.31l-4.37,2.53Z" style="fill:#3047F5"></path><path d="M100.1,354.39a13.1,13.1,0,0,1-.83,4.93,5.67,5.67,0,0,1-2.3,2.87c-1,.56-1.73.48-2.29-.23s-.84-2-.84-3.95v-3.6a12.94,12.94,0,0,1,.83-4.93A5.64,5.64,0,0,1,97,346.6c1-.56,1.73-.48,2.3.23s.84,2,.84,4Zm-1.33-3.26a5.46,5.46,0,0,0-.46-2.7c-.31-.48-.76-.56-1.35-.21A3.14,3.14,0,0,0,95.63,350a9.49,9.49,0,0,0-.46,3.23v4.44a5.51,5.51,0,0,0,.46,2.71c.31.49.76.56,1.34.23a3.17,3.17,0,0,0,1.34-1.77,9.61,9.61,0,0,0,.46-3.25Z" style="fill:#3047F5;opacity:0.30000000000000004"></path><path d="M153.15,51l1.52-1.17V38.46l-1.54.94V38.11L156,35.49V49.05l1.51-.58v1.31l-4.37,2.52Z" style="fill:#3047F5;opacity:0.30000000000000004"></path><path d="M158.33,64.86a12.86,12.86,0,0,1-.84,4.93,5.69,5.69,0,0,1-2.29,2.88c-1,.55-1.73.48-2.3-.23s-.84-2-.84-4V64.89a13.19,13.19,0,0,1,.83-4.94,5.69,5.69,0,0,1,2.29-2.88c1-.56,1.74-.48,2.3.23a6.76,6.76,0,0,1,.85,4ZM157,61.6a5.49,5.49,0,0,0-.46-2.7q-.47-.72-1.35-.21a3.18,3.18,0,0,0-1.33,1.76,9.49,9.49,0,0,0-.46,3.23v4.45a5.46,5.46,0,0,0,.47,2.7c.31.49.75.57,1.34.23a3.21,3.21,0,0,0,1.34-1.77A9.9,9.9,0,0,0,157,66Z" style="fill:#3047F5"></path><path d="M153.15,93.64l1.52-1.17V81.11l-1.54.94V80.76L156,78.14V91.7l1.51-.58v1.31L153.15,95Z" style="fill:#3047F5;opacity:0.30000000000000004"></path><path d="M158.33,107.51a13,13,0,0,1-.84,4.94,5.7,5.7,0,0,1-2.29,2.87c-1,.55-1.73.48-2.3-.23s-.84-2-.84-4v-3.59a13.19,13.19,0,0,1,.83-4.94,5.62,5.62,0,0,1,2.29-2.87c1-.56,1.74-.49,2.3.22a6.76,6.76,0,0,1,.85,4ZM157,104.25a5.42,5.42,0,0,0-.46-2.69c-.31-.49-.76-.56-1.35-.22a3.18,3.18,0,0,0-1.33,1.76,9.49,9.49,0,0,0-.46,3.23v4.45a5.46,5.46,0,0,0,.47,2.7c.31.49.75.57,1.34.23a3.21,3.21,0,0,0,1.34-1.77,9.79,9.79,0,0,0,.45-3.24Z" style="fill:#3047F5;opacity:0.30000000000000004"></path><path d="M153.15,136.29l1.52-1.17V123.76l-1.54.94v-1.28L156,120.8v13.55l1.51-.58v1.31l-4.37,2.52Z" style="fill:#3047F5"></path><path d="M153.15,157.62l1.52-1.17V145.09l-1.54.93v-1.28l2.88-2.62v13.56l1.51-.59v1.32l-4.37,2.52Z" style="fill:#3047F5;opacity:0.30000000000000004"></path><path d="M153.15,178.94l1.52-1.17V166.41l-1.54.94v-1.28l2.88-2.62V177l1.51-.58v1.31l-4.37,2.52Z" style="fill:#3047F5;opacity:0.15"></path><path d="M158.33,192.81a13,13,0,0,1-.84,4.94,5.7,5.7,0,0,1-2.29,2.87c-1,.56-1.73.48-2.3-.23s-.84-2-.84-4v-3.59a13.19,13.19,0,0,1,.83-4.94,5.62,5.62,0,0,1,2.29-2.87c1-.56,1.74-.49,2.3.23s.85,2,.85,4ZM157,189.55a5.42,5.42,0,0,0-.46-2.69c-.31-.49-.76-.56-1.35-.22a3.24,3.24,0,0,0-1.33,1.77,9.43,9.43,0,0,0-.46,3.22v4.45a5.46,5.46,0,0,0,.47,2.7c.31.49.75.57,1.34.24a3.27,3.27,0,0,0,1.34-1.78A9.79,9.79,0,0,0,157,194Z" style="fill:#3047F5"></path><path d="M153.15,221.59l1.52-1.17V209.07l-1.54.93v-1.28L156,206.1v13.56l1.51-.59v1.31l-4.37,2.53Z" style="fill:#3047F5;opacity:0.15"></path><path d="M158.33,235.46a12.91,12.91,0,0,1-.84,4.94,5.7,5.7,0,0,1-2.29,2.87c-1,.56-1.73.48-2.3-.23s-.84-2-.84-4v-3.59a13.13,13.13,0,0,1,.83-4.93,5.69,5.69,0,0,1,2.29-2.88c1-.56,1.74-.48,2.3.23s.85,2,.85,4ZM157,232.2a5.42,5.42,0,0,0-.46-2.69c-.31-.48-.76-.56-1.35-.22a3.24,3.24,0,0,0-1.33,1.77,9.43,9.43,0,0,0-.46,3.22v4.45a5.51,5.51,0,0,0,.47,2.71c.31.49.75.56,1.34.23a3.24,3.24,0,0,0,1.34-1.78,9.79,9.79,0,0,0,.45-3.24Z" style="fill:#3047F5;opacity:0.15"></path><path d="M153.15,264.24l1.52-1.16V251.71l-1.54.94v-1.28l2.88-2.62v13.56l1.51-.59V263l-4.37,2.53Z" style="fill:#3047F5;opacity:0.30000000000000004"></path><path d="M158.33,278.12a12.89,12.89,0,0,1-.84,4.93,5.66,5.66,0,0,1-2.29,2.87c-1,.56-1.73.48-2.3-.23s-.84-2-.84-4v-3.59a13.13,13.13,0,0,1,.83-4.93,5.69,5.69,0,0,1,2.29-2.88c1-.56,1.74-.48,2.3.23s.85,2,.85,4ZM157,274.85a5.42,5.42,0,0,0-.46-2.69c-.31-.48-.76-.56-1.35-.22a3.24,3.24,0,0,0-1.33,1.77,9.43,9.43,0,0,0-.46,3.22v4.45a5.51,5.51,0,0,0,.47,2.71c.31.49.75.56,1.34.23a3.2,3.2,0,0,0,1.34-1.78,9.79,9.79,0,0,0,.45-3.24Z" style="fill:#3047F5;opacity:0.30000000000000004"></path><path d="M153.15,306.9l1.52-1.17V294.37l-1.54.93V294L156,291.4V305l1.51-.59v1.32l-4.37,2.52Z" style="fill:#3047F5;opacity:0.30000000000000004"></path><path d="M158.33,320.77a12.89,12.89,0,0,1-.84,4.93,5.66,5.66,0,0,1-2.29,2.87c-1,.56-1.73.48-2.3-.23s-.84-2-.84-4v-3.59a13.13,13.13,0,0,1,.83-4.93,5.69,5.69,0,0,1,2.29-2.88c1-.56,1.74-.48,2.3.23s.85,2,.85,4ZM157,317.5a5.42,5.42,0,0,0-.46-2.69c-.31-.48-.76-.56-1.35-.22a3.24,3.24,0,0,0-1.33,1.77,9.45,9.45,0,0,0-.46,3.23V324a5.48,5.48,0,0,0,.47,2.71c.31.49.75.56,1.34.23a3.2,3.2,0,0,0,1.34-1.78A9.79,9.79,0,0,0,157,322Z" style="fill:#3047F5"></path></g></g><g id="freepik--Device--inject-8"><g id="freepik--Mobile--inject-8"><path d="M215.88,346.68v-286c0-7.35-3.65-9.38-6.9-11.26s-8.59-3-13.2-.34L77.7,117.29c-4.61,2.66-8.35,9.14-8.35,14.47v286c0,5.32,3.34,8.46,6.58,10.34s8.91,3.93,13.52,1.26l118.08-68.17A15.71,15.71,0,0,0,215.88,346.68Z" style="fill:#37474f"></path><path d="M208.37,349.38,87,419.49,87,132.3l-15.2-8.77a17,17,0,0,0-2.44,8.23v286c0,5.32,3.34,8.46,6.58,10.34s8.91,3.93,13.52,1.26l118.08-68.17a15.91,15.91,0,0,0,7.23-8.07l-.47-.27Z" style="fill:#263238"></path><path d="M207.31,58.25,88.89,126.63A13,13,0,0,0,83,136.77V420.4c0,5.72,4.06,8.06,9,5.19L207.31,359a14.73,14.73,0,0,0,6.64-11.5V62.09C214,57.87,211,56.14,207.31,58.25Z" style="fill:#455a64"></path><path d="M208.18,75.64V340.77a14,14,0,0,1-6.31,10.94L95.11,413.35c-3.48,2-6.3.39-6.3-3.64V142.63a14.13,14.13,0,0,1,4.42-9.51l.6-.54a12.58,12.58,0,0,1,1.28-.87l30-17.34,2-1.13c1.08-.63,2-.12,2,1.13s.93,1.73,2.09,1l35-20.2a4.5,4.5,0,0,0,2.09-3.46A4.44,4.44,0,0,1,170,88.48l.2-.13L199.56,71.4l.63-.37C204.59,68.5,208.18,70.57,208.18,75.64Z"></path><path d="M192.71,344.63a14,14,0,0,0,6.3-10.94v-262L170.19,88.35l-.2.13a4.44,4.44,0,0,0-1.76,3.28,4.5,4.5,0,0,1-2.09,3.46l-35,20.2c-1.16.68-2.09.19-2.09-1s-.88-1.76-2-1.13l-2,1.13-30,17.34a11.56,11.56,0,0,0-1.28.87l-.6.54a14.13,14.13,0,0,0-4.42,9.51v262Z" style="fill:#263238"></path><path d="M136.46,104.75l16-9.26c1-.56,1.74-.16,1.74.87a3.71,3.71,0,0,1-1.74,2.88l-16,9.26c-1,.56-1.73.16-1.73-.87A3.7,3.7,0,0,1,136.46,104.75Z" style="fill:#263238"></path><path d="M160.73,90c1.08-.62,2-.11,2,1.13a4.3,4.3,0,0,1-2,3.38c-1.07.62-1.95.12-1.95-1.12A4.35,4.35,0,0,1,160.73,90Z" style="fill:#263238"></path><path d="M80.3,166.06a7.05,7.05,0,0,0-3.08-5.58,2.07,2.07,0,0,0-2.12-.17c-.39.23-1.91,1.08-2.31,1.32a2.41,2.41,0,0,0-1,2.19v23.3a7.06,7.06,0,0,0,3.09,5.58,2.09,2.09,0,0,0,2,.22c.43-.22,2-1.12,2.39-1.36a2.43,2.43,0,0,0,1-2.2Z" style="fill:#455a64"></path><path d="M78,167.39v23.3c0,2.09-1.38,3-3.09,2a7.06,7.06,0,0,1-3.09-5.58v-23.3c0-2.1,1.39-3,3.09-2A7.07,7.07,0,0,1,78,167.39Z" style="fill:#37474f"></path><path d="M80.3,206.84a7.05,7.05,0,0,0-3.08-5.58,2.07,2.07,0,0,0-2.12-.17c-.39.23-1.91,1.08-2.31,1.32a2.41,2.41,0,0,0-1,2.19v23.3a7.06,7.06,0,0,0,3.09,5.58,2.09,2.09,0,0,0,2,.22c.43-.22,2-1.12,2.39-1.36a2.43,2.43,0,0,0,1-2.2Z" style="fill:#455a64"></path><path d="M78,208.17v23.3c0,2.09-1.38,3-3.09,2a7.06,7.06,0,0,1-3.09-5.58V204.6c0-2.1,1.39-3,3.09-2A7.07,7.07,0,0,1,78,208.17Z" style="fill:#37474f"></path></g></g><g id="freepik--Screen--inject-8"><g id="freepik--screen--inject-8"><path d="M229.68,93.86V359a14,14,0,0,1-6.31,10.93L116.61,431.56c-3.48,2-6.31.4-6.31-3.63V160.85a14.12,14.12,0,0,1,4.43-9.51q.3-.28.6-.54a10.42,10.42,0,0,1,1.28-.88l30-17.34,2-1.13c1.08-.62,2-.12,2,1.13s.94,1.73,2.1,1l35-20.2a4.48,4.48,0,0,0,2.09-3.46,4.46,4.46,0,0,1,1.76-3.28,1.06,1.06,0,0,1,.2-.12l29.37-17,.63-.36C226.09,86.71,229.68,88.78,229.68,93.86Z" style="opacity:0.30000000000000004"></path><path d="M113.79,432.94a3.74,3.74,0,0,1-1.88-.49c-1.36-.78-2.11-2.39-2.11-4.52V160.85a14.56,14.56,0,0,1,4.59-9.88l.2-.18.41-.37a11.38,11.38,0,0,1,1.36-.93l30-17.34h0l2-1.13a1.68,1.68,0,0,1,2.7,1.56.88.88,0,0,0,.32.79,1.12,1.12,0,0,0,1-.17l35-20.2a4,4,0,0,0,1.84-3,5,5,0,0,1,2-3.69l.24-.15,30-17.31c2.29-1.33,4.47-1.52,6.14-.55s2.6,3,2.6,5.59V359a14.52,14.52,0,0,1-6.56,11.37L116.86,432A6.24,6.24,0,0,1,113.79,432.94Zm35.68-301.26a1.23,1.23,0,0,0-.62.21l-2,1.12-30,17.34a12.15,12.15,0,0,0-1.22.84c-.12.1-.24.22-.37.34l-.2.18a13.67,13.67,0,0,0-4.27,9.14V427.93c0,1.76.57,3.06,1.6,3.65s2.44.43,4-.45l106.76-61.64a13.39,13.39,0,0,0,6.06-10.5V93.86c0-2.27-.75-4-2.1-4.73s-3.17-.58-5.14.55l-.62.36-29.38,17-.16.1a3.91,3.91,0,0,0-1.55,2.87,4.94,4.94,0,0,1-2.34,3.89l-35,20.21a2,2,0,0,1-2,.17,1.82,1.82,0,0,1-.82-1.66.91.91,0,0,0-.32-.83A.53.53,0,0,0,149.47,131.68Z" style="fill:#3047F5"></path></g></g><g id="freepik--Lines--inject-8"><g id="freepik--lines--inject-8"><path d="M241.77,318.13c1-.58,1.82-.11,1.82,1.06a4,4,0,0,1-1.82,3.15c-1,.59-1.83.11-1.83-1A4,4,0,0,1,241.77,318.13Z" style="fill:#455a64"></path><path d="M297.85,114.31c1-.58,1.82-.11,1.82,1.06a4,4,0,0,1-1.82,3.15c-1,.58-1.83.11-1.83-1A4,4,0,0,1,297.85,114.31Z" style="fill:#455a64"></path><path d="M242,320.63l-.45-.78,24-13.89a5.35,5.35,0,0,0,2.66-4.62V136.57a6.22,6.22,0,0,1,3.11-5.38L297.62,116l.45.78L271.79,132a5.35,5.35,0,0,0-2.66,4.61V301.34a6.22,6.22,0,0,1-3.11,5.39Z" style="fill:#455a64"></path><path d="M241.77,335.21c1-.58,1.82-.11,1.82,1.06a4,4,0,0,1-1.82,3.15c-1,.59-1.83.11-1.83-1.05A4.05,4.05,0,0,1,241.77,335.21Z" style="fill:#455a64"></path><path d="M297.85,189.44c1-.58,1.82-.11,1.82,1.05a4,4,0,0,1-1.82,3.16c-1,.58-1.83.11-1.83-1.05A4,4,0,0,1,297.85,189.44Z" style="fill:#455a64"></path><path d="M242,337.71l-.45-.78L277.72,316a5.35,5.35,0,0,0,2.66-4.61V204.53a6.24,6.24,0,0,1,3.11-5.39L297.62,191l.45.78-14.13,8.14a5.33,5.33,0,0,0-2.66,4.61V311.41a6.25,6.25,0,0,1-3.11,5.39Z" style="fill:#455a64"></path><path d="M241.77,352.3c1-.58,1.82-.11,1.82,1.05a4.05,4.05,0,0,1-1.82,3.16c-1,.58-1.83.11-1.83-1.05A4,4,0,0,1,241.77,352.3Z" style="fill:#455a64"></path><path d="M297.85,288c1-.58,1.82-.11,1.82,1.05a4,4,0,0,1-1.82,3.16c-1,.58-1.83.11-1.83-1.05A4,4,0,0,1,297.85,288Z" style="fill:#455a64"></path><path d="M242,354.79l-.45-.77,44-25.41A5.34,5.34,0,0,0,288.2,324V298.58a6.24,6.24,0,0,1,3.11-5.39l6.31-3.64.45.78L291.76,294a5.35,5.35,0,0,0-2.67,4.61V324a6.24,6.24,0,0,1-3.11,5.39Z" style="fill:#455a64"></path></g></g><g id="freepik--Keypad--inject-8"><g id="freepik--keypad--inject-8"><g id="freepik--Account--inject-8"><g id="freepik--code--inject-8"><path d="M312,231l78.35-45.21c1.22-.71,2.21-.14,2.21,1.28v97.39a4.88,4.88,0,0,1-2.21,3.83L312,333.5c-1.23.71-2.22.14-2.22-1.27v-97.4A4.88,4.88,0,0,1,312,231Z" style="fill:#3047F5"></path><path d="M312,231l78.35-45.21c1.22-.71,2.21-.14,2.21,1.28v97.39a4.88,4.88,0,0,1-2.21,3.83L312,333.5c-1.23.71-2.22.14-2.22-1.27v-97.4A4.88,4.88,0,0,1,312,231Z" style="fill:#fff;opacity:0.6000000000000001"></path><path d="M310.43,232.65l-5.64-3.27a4.53,4.53,0,0,0-.65,2.18V329a1.56,1.56,0,0,0,.64,1.42c.4.25,5.23,3,5.61,3.25a1.58,1.58,0,0,1-.6-1.41v-97.4A4.59,4.59,0,0,1,310.43,232.65Z" style="fill:#3047F5"></path><path d="M310.43,232.65l-5.64-3.27a4.53,4.53,0,0,0-.65,2.18V329a1.56,1.56,0,0,0,.64,1.42c.4.25,5.23,3,5.61,3.25a1.58,1.58,0,0,1-.6-1.41v-97.4A4.59,4.59,0,0,1,310.43,232.65Z" style="fill:#fff;opacity:0.1"></path><path d="M391.82,185.57c-.79-.48-5.17-3-5.53-3.21a1.59,1.59,0,0,0-1.59.15l-78.34,45.22a4.54,4.54,0,0,0-1.57,1.65l5.64,3.27A4.57,4.57,0,0,1,312,231l78.35-45.21A1.63,1.63,0,0,1,391.82,185.57Z" style="fill:#3047F5"></path><path d="M391.82,185.57c-.79-.48-5.17-3-5.53-3.21a1.59,1.59,0,0,0-1.59.15l-78.34,45.22a4.54,4.54,0,0,0-1.57,1.65l5.64,3.27A4.57,4.57,0,0,1,312,231l78.35-45.21A1.63,1.63,0,0,1,391.82,185.57Z" style="fill:#fff;opacity:0.30000000000000004"></path></g></g><g style="opacity:0.6000000000000001"><path d="M325.65,233c4-2.33,7.29-.44,7.29,4.21a16.13,16.13,0,0,1-7.29,12.63c-4,2.33-7.3.44-7.3-4.21A16.11,16.11,0,0,1,325.65,233Z" style="fill:#fff"></path><path d="M351.17,218.28c4-2.33,7.29-.44,7.29,4.21a16.1,16.1,0,0,1-7.29,12.63c-4,2.33-7.29.44-7.29-4.21A16.12,16.12,0,0,1,351.17,218.28Z" style="fill:#fff"></path><path d="M376.7,203.54c4-2.32,7.29-.44,7.29,4.21a16.12,16.12,0,0,1-7.29,12.64c-4,2.32-7.3.44-7.3-4.21A16.13,16.13,0,0,1,376.7,203.54Z" style="fill:#fff"></path></g><g style="opacity:0.6000000000000001"><path d="M325.65,265.8c4-2.32,7.29-.44,7.29,4.21a16.16,16.16,0,0,1-7.29,12.64c-4,2.32-7.3.44-7.3-4.22A16.13,16.13,0,0,1,325.65,265.8Z" style="fill:#fff"></path><path d="M351.17,251.07c4-2.33,7.29-.45,7.29,4.21a16.12,16.12,0,0,1-7.29,12.63c-4,2.32-7.29.44-7.29-4.21A16.1,16.1,0,0,1,351.17,251.07Z" style="fill:#fff"></path><path d="M376.7,236.33c4-2.33,7.29-.44,7.29,4.21a16.1,16.1,0,0,1-7.29,12.63c-4,2.33-7.3.44-7.3-4.21A16.11,16.11,0,0,1,376.7,236.33Z" style="fill:#fff"></path></g><g style="opacity:0.6000000000000001"><path d="M325.65,298.59c4-2.33,7.29-.44,7.29,4.21a16.14,16.14,0,0,1-7.29,12.63c-4,2.33-7.3.44-7.3-4.21A16.11,16.11,0,0,1,325.65,298.59Z" style="fill:#fff"></path><path d="M351.17,283.85c4-2.33,7.29-.44,7.29,4.21a16.1,16.1,0,0,1-7.29,12.63c-4,2.33-7.29.44-7.29-4.21A16.12,16.12,0,0,1,351.17,283.85Z" style="fill:#fff"></path><path d="M376.7,269.11c4-2.32,7.29-.44,7.29,4.21A16.13,16.13,0,0,1,376.7,286c-4,2.32-7.3.44-7.3-4.22A16.13,16.13,0,0,1,376.7,269.11Z" style="fill:#fff"></path></g><path d="M325.65,238.32c1.49-.86,2.7-.16,2.7,1.56a6,6,0,0,1-2.7,4.68c-1.5.86-2.71.16-2.71-1.56A6,6,0,0,1,325.65,238.32Z" style="fill:#3047F5"></path><path d="M351.17,223.58c1.49-.86,2.7-.16,2.7,1.56a6,6,0,0,1-2.7,4.68c-1.49.86-2.7.17-2.7-1.56A6,6,0,0,1,351.17,223.58Z" style="fill:#3047F5"></path><path d="M325.65,303.89c1.49-.86,2.7-.16,2.7,1.56a6,6,0,0,1-2.7,4.68c-1.5.86-2.71.16-2.71-1.56A6,6,0,0,1,325.65,303.89Z" style="fill:#3047F5"></path><path d="M376.7,274.41c1.49-.86,2.7-.16,2.7,1.56a6,6,0,0,1-2.7,4.68c-1.5.87-2.7.17-2.71-1.56A6,6,0,0,1,376.7,274.41Z" style="fill:#3047F5"></path><path d="M351.17,256.37c1.49-.87,2.7-.17,2.7,1.56a6,6,0,0,1-2.7,4.68c-1.49.86-2.7.16-2.7-1.56A6,6,0,0,1,351.17,256.37Z" style="fill:#3047F5"></path><path d="M351.17,289.15c1.49-.86,2.7-.16,2.7,1.56a6,6,0,0,1-2.7,4.68c-1.49.86-2.7.16-2.7-1.56A6,6,0,0,1,351.17,289.15Z" style="fill:#3047F5"></path><path d="M325.7,307.51a.5.5,0,0,1-.35-.14.52.52,0,0,1-.1-.6l25.42-47.42v-32l-24.79,14.47a.51.51,0,0,1-.69-.18.49.49,0,0,1,.18-.68l25.55-14.91a.52.52,0,0,1,.5,0,.5.5,0,0,1,.25.44v33a.46.46,0,0,1-.06.23L327,305.7l49.48-28.6a.5.5,0,0,1,.68.18.51.51,0,0,1-.18.69l-51,29.47A.47.47,0,0,1,325.7,307.51Z" style="fill:#3047F5;opacity:0.5"></path></g></g><g id="freepik--Fingerprint--inject-8"><g id="freepik--fingerprint--inject-8"><path d="M304.14,144.78v65.83a3,3,0,0,0,1.39,2.4l2.43,1.41a3.07,3.07,0,0,0,2.77,0l46.63-26.82a3.07,3.07,0,0,0,1.38-2.4V119.36a3.07,3.07,0,0,0-1.38-2.4l-2.43-1.4a3.09,3.09,0,0,0-2.78,0l-46.62,26.82A3,3,0,0,0,304.14,144.78Z" style="fill:#37474f"></path><path d="M358.73,119.14c-.09-.72-.67-1-1.37-.58l-46.63,26.82a2.82,2.82,0,0,0-1,1l-5.2-3a2.86,2.86,0,0,1,1-1l46.63-26.82a3,3,0,0,1,2.77,0l2.43,1.4A3.08,3.08,0,0,1,358.73,119.14Z" style="fill:#455a64"></path><path d="M310.49,214.53s-.06,0-.08,0l-.17.06h0l-.28.07a3.14,3.14,0,0,1-1.67-.13l-.31-.14L305.53,213a3.07,3.07,0,0,1-1.39-2.4V144.78a2.89,2.89,0,0,1,.41-1.37l5.2,3a2.8,2.8,0,0,0-.4,1.36v65.84a1.13,1.13,0,0,0,.21.73.7.7,0,0,0,.74.23Z" style="fill:#263238"></path><path d="M345,171.73a7.48,7.48,0,0,1-4.23-1.25.45.45,0,1,1,.51-.73c1.48,1,3.49,1.33,6.15.92a.43.43,0,0,1,.51.37.45.45,0,0,1-.37.51A14.7,14.7,0,0,1,345,171.73Z" style="fill:#3047F5"></path><path d="M340.32,169.36a.41.41,0,0,1-.32-.15c-1.53-1.8-1.63-4.46-1.74-7.28,0-.47,0-1-.06-1.44a3.41,3.41,0,0,0-.93-2.63,2,2,0,0,0-1.72-.15.44.44,0,0,1-.54-.31.45.45,0,0,1,.31-.55,2.82,2.82,0,0,1,2.48.29c.78.58,1.21,1.66,1.29,3.3,0,.49.05,1,.06,1.46.11,2.77.2,5.17,1.52,6.73a.44.44,0,0,1-.05.63A.41.41,0,0,1,340.32,169.36Z" style="fill:#3047F5"></path><path d="M332,175.8a.44.44,0,0,1-.41-.27c-1.48-3.7-2.21-14.81,2.23-17.84a.44.44,0,0,1,.62.12.46.46,0,0,1-.12.62c-3.85,2.62-3.32,13.24-1.9,16.76a.45.45,0,0,1-.25.58A.34.34,0,0,1,332,175.8Z" style="fill:#3047F5"></path><path d="M342.15,182.67a11.06,11.06,0,0,1-10-5.86.44.44,0,1,1,.78-.42c2.11,3.91,6.05,5.8,11.13,5.32a.45.45,0,0,1,.48.4.44.44,0,0,1-.4.49A16.76,16.76,0,0,1,342.15,182.67Z" style="fill:#3047F5"></path><path d="M343.2,180.1a10,10,0,0,1-7.14-2.74c-2.7-2.72-3.76-7.45-3.14-14.06a4.61,4.61,0,0,1,2-3.45,1.67,1.67,0,0,1,1.7,0,1.9,1.9,0,0,1,.8,1.76c-.2,5.33.69,8.8,2.72,10.61,1.57,1.4,3.84,1.85,6.93,1.38a.44.44,0,0,1,.51.37.46.46,0,0,1-.38.51c-3.37.52-5.87,0-7.65-1.59-2.25-2-3.23-5.71-3-11.32a1.05,1.05,0,0,0-.38-1,.76.76,0,0,0-.77,0,3.81,3.81,0,0,0-1.63,2.76c-.59,6.34.48,10.83,3,13.36,1.9,1.91,4.72,2.72,8.37,2.41a.45.45,0,0,1,.07.89A15.86,15.86,0,0,1,343.2,180.1Z" style="fill:#3047F5"></path><path d="M341.37,185.61a12,12,0,0,1-8.78-3.24c-3.24-3.21-4.67-8.68-4.24-16.24.23-4.2,1.79-9.43,5.43-11.53l.15-.08a4.4,4.4,0,0,1,4.33-.32c1.49.8,2.43,2.68,2.63,5.27l0,.45c.2,2.62.4,5.33,2.1,6.67,1.09.85,2.72,1.08,5,.71a.42.42,0,0,1,.51.36.46.46,0,0,1-.36.52c-2.51.42-4.36.13-5.66-.89-2-1.58-2.24-4.62-2.44-7.3l0-.45c-.18-2.28-.95-3.9-2.17-4.56a3.54,3.54,0,0,0-3.47.32l-.13.07c-3.34,1.93-4.78,7-5,10.81-.41,7.3.92,12.53,4,15.55,2.24,2.22,5.41,3.21,9.39,3a.44.44,0,0,1,.47.41.45.45,0,0,1-.41.48C342.22,185.59,341.79,185.61,341.37,185.61Z" style="fill:#3047F5"></path><path d="M340.6,188.79h0A14.52,14.52,0,0,1,336,188a.44.44,0,0,1-.28-.57.45.45,0,0,1,.57-.27,13.59,13.59,0,0,0,4.35.79.43.43,0,0,1,.44.44A.44.44,0,0,1,340.6,188.79Z" style="fill:#3047F5"></path><path d="M334.55,187.49a.43.43,0,0,1-.19,0,11.82,11.82,0,0,1-6-5.55.45.45,0,0,1,.21-.6.46.46,0,0,1,.6.21,10.72,10.72,0,0,0,5.53,5.13.45.45,0,0,1,.22.59A.44.44,0,0,1,334.55,187.49Z" style="fill:#3047F5"></path><path d="M328,180.25a.45.45,0,0,1-.43-.3c-1.73-5-2.8-15.23,1.39-22.95a.44.44,0,0,1,.78.42c-4.05,7.47-3,17.39-1.32,22.24a.45.45,0,0,1-.28.57Z" style="fill:#3047F5"></path><path d="M342.55,159.44a.45.45,0,0,1-.44-.41c-.42-4.49-1.63-6.63-4.06-7.17s-5.18,1.12-7.37,4.13a.45.45,0,1,1-.72-.53c2.43-3.35,5.61-5.06,8.28-4.47,3.61.8,4.43,4.47,4.76,8a.46.46,0,0,1-.4.49Z" style="fill:#3047F5"></path><path d="M346.42,165.69a4,4,0,0,1-2.08-.55,4.61,4.61,0,0,1-1.93-3.58.44.44,0,1,1,.88-.11,3.79,3.79,0,0,0,1.52,2.93,3.94,3.94,0,0,0,3.39.09.44.44,0,0,1,.57.27.45.45,0,0,1-.27.57A6.47,6.47,0,0,1,346.42,165.69Z" style="fill:#3047F5"></path><path d="M338.78,191.2h0a18.75,18.75,0,0,1-4.63-1.18c-7.77-3.18-10.88-9.62-10.41-21.53.26-6.86,3.78-15.69,10-19.27,2.57-1.48,4.81-1.77,6.67-.86,2.22,1.09,3.69,3.85,4.25,8,.61,4.56,1.76,5.36,3.91,5.28h0a.44.44,0,0,1,.44.43.45.45,0,0,1-.43.46c-3,.06-4.2-1.44-4.83-6-.52-3.82-1.81-6.35-3.75-7.3-1.58-.77-3.54-.49-5.84.84-5.92,3.41-9.28,11.9-9.53,18.52-.57,14.43,4.66,18.54,9.84,20.67a17.49,17.49,0,0,0,4.39,1.12.45.45,0,0,1,0,.89Z" style="fill:#3047F5"></path><path d="M348.51,159.44c-2.5,0-3-3.23-3.45-5.84-.07-.37-.13-.74-.19-1.09a.46.46,0,0,1,.36-.52.44.44,0,0,1,.52.36c.06.36.12.73.19,1.11.39,2.41.86,5.14,2.64,5.08a.44.44,0,0,1,.46.43.46.46,0,0,1-.43.47Z" style="fill:#3047F5"></path><path d="M344.93,151.28a.45.45,0,0,1-.43-.31c-.9-2.91-2.61-4.73-4.82-5.14a.45.45,0,0,1,.16-.88c2.52.47,4.53,2.56,5.51,5.75a.44.44,0,0,1-.29.56Z" style="fill:#3047F5"></path><path d="M330.1,150a.43.43,0,0,1-.31-.13.45.45,0,0,1,0-.63c2.57-2.64,5.63-4.22,8.42-4.33a.45.45,0,1,1,0,.89c-2.52.1-5.44,1.62-7.81,4.06A.43.43,0,0,1,330.1,150Z" style="fill:#3047F5"></path><path d="M322.73,162.67h-.11a.44.44,0,0,1-.32-.54,29.43,29.43,0,0,1,5.94-11.48.46.46,0,0,1,.63-.06.44.44,0,0,1,.05.63,28.56,28.56,0,0,0-5.76,11.12A.45.45,0,0,1,322.73,162.67Z" style="fill:#3047F5"></path><path d="M321.78,175.84a.44.44,0,0,1-.44-.39,38.15,38.15,0,0,1,.38-11.42.44.44,0,0,1,.52-.36.44.44,0,0,1,.36.52,37.35,37.35,0,0,0-.37,11.15.45.45,0,0,1-.39.5Z" style="fill:#3047F5"></path><path d="M325.25,186.58a.44.44,0,0,1-.38-.22,26.6,26.6,0,0,1-3-8.73.45.45,0,1,1,.88-.16,25.78,25.78,0,0,0,2.92,8.43.44.44,0,0,1-.15.61A.39.39,0,0,1,325.25,186.58Z" style="fill:#3047F5"></path><path d="M335,194a.47.47,0,0,1-.17,0c-4.06-1.66-6.91-3.64-8.69-6a.45.45,0,1,1,.71-.54c1.69,2.28,4.41,4.16,8.31,5.75a.45.45,0,0,1,.25.58A.44.44,0,0,1,335,194Z" style="fill:#3047F5"></path><path d="M331.39,195.48a.47.47,0,0,1-.17,0c-8.12-3.33-12.41-11.85-12.41-24.65,0-9.93,4.52-22.43,14.63-28a9.89,9.89,0,0,1,9.86,0c3.49,2.07,5.49,6.24,5.49,11.46a.45.45,0,1,1-.89,0c0-5-1.79-8.76-5-10.69a9,9,0,0,0-9,0c-9.79,5.36-14.17,17.51-14.17,27.18,0,8.65,2.06,19.81,11.86,23.82a.45.45,0,0,1-.17.86Z" style="fill:#3047F5"></path><path d="M343.89,177.39c-.32,0-.64,0-.94,0a.45.45,0,1,1,.07-.89,18.74,18.74,0,0,0,3.32-.06.46.46,0,0,1,.49.41.45.45,0,0,1-.41.48A20.31,20.31,0,0,1,343.89,177.39Z" style="fill:#3047F5"></path><path d="M341.35,177.16h-.08a6.79,6.79,0,0,1-4.78-3.65.45.45,0,0,1,.22-.59.43.43,0,0,1,.59.22,5.92,5.92,0,0,0,4.16,3.15.46.46,0,0,1,.34.54A.44.44,0,0,1,341.35,177.16Z" style="fill:#3047F5"></path><path d="M336.3,172.15a.39.39,0,0,1-.37-.24,19,19,0,0,1-1.17-8.86.39.39,0,0,1,.43-.38.42.42,0,0,1,.38.44,18.24,18.24,0,0,0,1.1,8.47.42.42,0,0,1-.21.54A.45.45,0,0,1,336.3,172.15Z" style="fill:#3047F5"></path><path d="M345.31,140.82a.43.43,0,0,1-.26-.09,9.71,9.71,0,0,0-7.08-1.3.45.45,0,0,1-.22-.87,10.58,10.58,0,0,1,7.82,1.45.45.45,0,0,1,.1.63A.44.44,0,0,1,345.31,140.82Z" style="fill:#3047F5"></path><path d="M326.51,146.29a.43.43,0,0,1-.3-.11.45.45,0,0,1,0-.63,24.62,24.62,0,0,1,9.4-6.39.44.44,0,1,1,.31.83,23.7,23.7,0,0,0-9,6.15A.44.44,0,0,1,326.51,146.29Z" style="fill:#3047F5"></path><path d="M326.8,197a.37.37,0,0,1-.2-.05,10.73,10.73,0,0,1-3.57-2.89.44.44,0,1,1,.69-.56,9.8,9.8,0,0,0,3.28,2.65.45.45,0,0,1-.2.85Z" style="fill:#3047F5"></path><path d="M322.22,192.59a.46.46,0,0,1-.35-.17,19.67,19.67,0,0,1-3.14-5.63.45.45,0,0,1,.28-.57.46.46,0,0,1,.57.28,18.54,18.54,0,0,0,3,5.36.45.45,0,0,1-.07.63A.44.44,0,0,1,322.22,192.59Z" style="fill:#3047F5"></path></g></g><g id="freepik--Password--inject-8"><g id="freepik--password--inject-8"><g id="freepik--code--inject-8"><path d="M312,100.09l78.35-45.21c1.22-.71,2.21-.14,2.21,1.27V78.88a4.9,4.9,0,0,1-2.21,3.84L312,127.94c-1.23.7-2.22.13-2.22-1.28V103.92A4.88,4.88,0,0,1,312,100.09Z" style="fill:#3047F5"></path><path d="M310.43,101.74l-5.64-3.26a4.5,4.5,0,0,0-.65,2.18v22.73a1.59,1.59,0,0,0,.64,1.43c.4.24,5.23,3,5.61,3.25a1.6,1.6,0,0,1-.6-1.41V103.92A4.66,4.66,0,0,1,310.43,101.74Z" style="fill:#3047F5"></path><path d="M310.43,101.74l-5.64-3.26a4.5,4.5,0,0,0-.65,2.18v22.73a1.59,1.59,0,0,0,.64,1.43c.4.24,5.23,3,5.61,3.25a1.6,1.6,0,0,1-.6-1.41V103.92A4.66,4.66,0,0,1,310.43,101.74Z" style="opacity:0.30000000000000004"></path><path d="M391.82,54.67c-.79-.48-5.17-3-5.53-3.21a1.6,1.6,0,0,0-1.59.14L306.36,96.83a4.46,4.46,0,0,0-1.57,1.65l5.64,3.26a4.54,4.54,0,0,1,1.57-1.65l78.35-45.21A1.63,1.63,0,0,1,391.82,54.67Z" style="fill:#3047F5"></path><path d="M391.82,54.67c-.79-.48-5.17-3-5.53-3.21a1.6,1.6,0,0,0-1.59.14L306.36,96.83a4.46,4.46,0,0,0-1.57,1.65l5.64,3.26a4.54,4.54,0,0,1,1.57-1.65l78.35-45.21A1.63,1.63,0,0,1,391.82,54.67Z" style="fill:#fff;opacity:0.30000000000000004"></path></g><path d="M319.7,109.73c0,3.19,2.39,4.39,5.34,2.69l50-28.88a11.41,11.41,0,0,0,5.33-8.85c0-3.19-2.38-4.4-5.33-2.7l-50,28.88A11.44,11.44,0,0,0,319.7,109.73Z" style="fill:#fff;opacity:0.5"></path><path d="M328.71,103.55l.94-1.44a.49.49,0,0,1,.08-.11.22.22,0,0,1,.2-.09c.06,0,.11.06.13.16l.3,1.23a.68.68,0,0,1,0,.31.76.76,0,0,1-.14.3.46.46,0,0,0-.1.07l-1.09.76.83.59c0,.06.06.09.06.07a.48.48,0,0,1,0,.28.64.64,0,0,1-.1.33l-.77,1.31a.37.37,0,0,1-.2.18.15.15,0,0,1-.17,0,.28.28,0,0,0-.05-.12l-.4-1.3-.41,1.77c0,.1,0,.16,0,.17a.6.6,0,0,1-.16.24.22.22,0,0,1-.21,0l-.76-.42c-.07,0-.1-.1-.11-.21a.76.76,0,0,1,.05-.33l.06-.15.82-1.54-1.09.5a.19.19,0,0,0-.09,0c-.07,0-.11,0-.15-.13a.56.56,0,0,1,0-.29l.3-1.57a.67.67,0,0,1,.14-.32.25.25,0,0,1,.19-.13s0,0,.09,0l.93.37-.26-1.51a.93.93,0,0,1,0-.14.83.83,0,0,1,.08-.32.61.61,0,0,1,.19-.24l1-.55a.14.14,0,0,1,.18,0,.36.36,0,0,1,.08.24s0,.08,0,.15Z" style="fill:#455a64"></path><path d="M334.94,100l.93-1.44c.05-.06.08-.1.09-.1a.21.21,0,0,1,.2-.1.19.19,0,0,1,.13.16l.3,1.23a.72.72,0,0,1,0,.32.71.71,0,0,1-.14.29l-.1.07-1.09.76.83.59c0,.07.06.09.06.08a.53.53,0,0,1,0,.28.67.67,0,0,1-.1.32l-.77,1.31a.37.37,0,0,1-.2.18.14.14,0,0,1-.17,0,1,1,0,0,0-.05-.12l-.4-1.29-.41,1.76c0,.11-.05.16-.05.18a.55.55,0,0,1-.17.23.18.18,0,0,1-.2,0l-.76-.42c-.07,0-.1-.09-.11-.2a.78.78,0,0,1,.05-.34s0,0,.06-.14l.82-1.54-1.09.49-.09,0c-.07,0-.11,0-.15-.13a.55.55,0,0,1,0-.29l.3-1.57a.71.71,0,0,1,.14-.32.25.25,0,0,1,.19-.13h.09l.93.36-.26-1.5a1.15,1.15,0,0,1,0-.14.88.88,0,0,1,.08-.33.5.5,0,0,1,.19-.23l.95-.55a.13.13,0,0,1,.19,0,.32.32,0,0,1,.08.23,1,1,0,0,1,0,.15Z" style="fill:#455a64"></path><path d="M341.17,96.36l.93-1.44.09-.11a.21.21,0,0,1,.19-.09c.07,0,.12.06.14.16l.3,1.22a.72.72,0,0,1,0,.32.62.62,0,0,1-.15.29l-.09.08-1.09.76.83.59c0,.06.05.09.05.07a.47.47,0,0,1,0,.28.75.75,0,0,1-.1.33l-.77,1.3a.45.45,0,0,1-.2.19c-.08,0-.13,0-.17,0a1,1,0,0,0-.05-.12l-.41-1.29-.4,1.76c0,.11-.05.17-.05.18a.58.58,0,0,1-.17.23.21.21,0,0,1-.2.06l-.77-.43c-.06,0-.1-.09-.1-.2a.64.64,0,0,1,.05-.33.58.58,0,0,0,.05-.15l.83-1.54-1.09.5-.09,0a.16.16,0,0,1-.15-.12.57.57,0,0,1,0-.29l.3-1.58a.63.63,0,0,1,.14-.31.26.26,0,0,1,.19-.14h.09l.93.36-.26-1.5a.93.93,0,0,1,0-.14.79.79,0,0,1,.08-.32.44.44,0,0,1,.19-.24l.95-.55a.15.15,0,0,1,.19,0,.34.34,0,0,1,.08.23,1.37,1.37,0,0,1,0,.16Z" style="fill:#455a64"></path><path d="M347.4,92.76l.93-1.44c.05-.07.08-.1.09-.1a.2.2,0,0,1,.19-.1c.07,0,.12.06.14.16l.3,1.23a.68.68,0,0,1,0,.31.7.7,0,0,1-.15.3l-.09.07L347.7,94l.82.59.06.08a.42.42,0,0,1,.05.27.65.65,0,0,1-.11.33l-.76,1.31a.41.41,0,0,1-.2.18.14.14,0,0,1-.17,0,1,1,0,0,0-.05-.12l-.41-1.29-.4,1.76a.67.67,0,0,0,0,.17.61.61,0,0,1-.17.24.18.18,0,0,1-.2,0l-.77-.42a.22.22,0,0,1-.1-.21.75.75,0,0,1,0-.33s0,0,.06-.14l.83-1.55-1.09.5-.1,0c-.06,0-.11,0-.14-.13a.56.56,0,0,1,0-.29l.3-1.57a.77.77,0,0,1,.13-.32.28.28,0,0,1,.2-.13s0,0,.08,0l.94.37-.27-1.51c0-.05,0-.1,0-.14a.83.83,0,0,1,.08-.32.45.45,0,0,1,.19-.23l1-.56a.14.14,0,0,1,.19,0,.32.32,0,0,1,.07.23,1,1,0,0,1,0,.15Z" style="fill:#455a64"></path><path d="M353.63,89.16l.93-1.44.08-.1c.07-.07.13-.11.2-.1a.18.18,0,0,1,.14.16l.3,1.23a.79.79,0,0,1-.17.61l-.09.08-1.09.75.82.59c0,.07.06.09.06.08a.44.44,0,0,1,.05.28.59.59,0,0,1-.11.32L354,92.93a.39.39,0,0,1-.21.18.12.12,0,0,1-.16,0l-.05-.12-.41-1.29-.4,1.76a.69.69,0,0,0-.05.18.66.66,0,0,1-.17.23.18.18,0,0,1-.2,0l-.77-.42c-.06,0-.1-.09-.1-.2a.78.78,0,0,1,0-.34s0,0,.06-.14l.83-1.54-1.09.5-.1,0c-.06,0-.11,0-.14-.13a.55.55,0,0,1,0-.29l.3-1.57a.83.83,0,0,1,.13-.32.31.31,0,0,1,.2-.13h.08l.94.36-.27-1.5c0-.06,0-.11,0-.14a.88.88,0,0,1,.08-.33.49.49,0,0,1,.18-.23l1-.55a.14.14,0,0,1,.19,0,.32.32,0,0,1,.07.23.86.86,0,0,1,0,.15Z" style="fill:#455a64"></path><path d="M359.86,85.57l.93-1.44a1,1,0,0,0,.08-.11.23.23,0,0,1,.2-.09c.07,0,.11.06.14.16l.3,1.22a.74.74,0,0,1,0,.32.83.83,0,0,1-.14.3.24.24,0,0,0-.09.07l-1.09.76.82.59c0,.06.06.09.06.07a.47.47,0,0,1,0,.28A.65.65,0,0,1,361,88l-.76,1.31a.56.56,0,0,1-.21.18.13.13,0,0,1-.16,0,.42.42,0,0,0-.05-.12l-.41-1.3L359,89.83a1,1,0,0,0,0,.17.61.61,0,0,1-.17.24.2.2,0,0,1-.2.05l-.77-.43c-.06,0-.1-.09-.11-.2a1,1,0,0,1,.05-.33.77.77,0,0,0,.06-.15l.83-1.54-1.09.5-.1,0c-.06,0-.11-.05-.14-.13a.68.68,0,0,1,0-.29l.3-1.57a.78.78,0,0,1,.14-.32c.07-.09.14-.14.2-.14H358l.94.37-.27-1.51a.76.76,0,0,1,0-.14.79.79,0,0,1,.08-.32.47.47,0,0,1,.18-.24l1-.55a.15.15,0,0,1,.19,0,.35.35,0,0,1,.07.23,1,1,0,0,1,0,.16Z" style="fill:#455a64"></path><path d="M366.09,82l.93-1.44.08-.1a.22.22,0,0,1,.2-.1c.07,0,.11.06.14.16l.3,1.23a.88.88,0,0,1,0,.31.7.7,0,0,1-.14.3l-.1.07-1.08.76.82.59c0,.06.06.09.06.08a.42.42,0,0,1,.05.27.65.65,0,0,1-.11.33l-.76,1.31a.42.42,0,0,1-.21.18.15.15,0,0,1-.17,0,.48.48,0,0,0,0-.12l-.41-1.29-.41,1.76a1,1,0,0,0,0,.17.61.61,0,0,1-.17.24.18.18,0,0,1-.2,0l-.77-.42c-.06,0-.1-.09-.11-.21a.76.76,0,0,1,.05-.33s0,0,.06-.14l.83-1.55-1.09.5-.1,0c-.06,0-.11,0-.14-.13a.68.68,0,0,1,0-.29l.3-1.57a.78.78,0,0,1,.14-.32c.07-.09.13-.13.2-.13s0,0,.08,0l.94.36L364.89,81a.71.71,0,0,1,0-.14.88.88,0,0,1,.08-.32.49.49,0,0,1,.18-.23l1-.56a.13.13,0,0,1,.18,0,.28.28,0,0,1,.08.23.92.92,0,0,1,0,.15Z" style="fill:#455a64"></path><path d="M372.32,78.37l.93-1.44c.05-.06.07-.1.08-.1s.13-.11.2-.1.11.07.14.16l.3,1.23a.93.93,0,0,1,0,.32.71.71,0,0,1-.14.29l-.1.08-1.09.75.83.59c0,.07.06.09.06.08a.54.54,0,0,1,.05.28.76.76,0,0,1-.11.33l-.77,1.3a.37.37,0,0,1-.2.18.14.14,0,0,1-.17,0,.48.48,0,0,0,0-.12l-.41-1.29-.41,1.76a1.23,1.23,0,0,0,0,.18.66.66,0,0,1-.17.23.22.22,0,0,1-.21.06l-.76-.43c-.06,0-.1-.09-.11-.2a.76.76,0,0,1,.05-.33.77.77,0,0,0,.06-.15l.82-1.54L370,81l-.1,0c-.06,0-.11,0-.14-.13a.64.64,0,0,1,0-.28L370,79a.84.84,0,0,1,.14-.32c.07-.08.13-.13.2-.13h.08l.93.36-.26-1.5a.82.82,0,0,1,0-.14.66.66,0,0,1,.08-.32.47.47,0,0,1,.18-.24l1-.55a.13.13,0,0,1,.18,0,.34.34,0,0,1,.08.23,1,1,0,0,1,0,.16Z" style="fill:#455a64"></path></g></g></svg>